<svg width="60" height="60" viewBox="0 0 60 60" fill="none" xmlns="http://www.w3.org/2000/svg">
<path fill-rule="evenodd" clip-rule="evenodd" d="M32.2902 0.035209C38.463 0.668622 43.4786 2.5826 48.2 6.10651C49.641 7.18212 52.8442 10.3837 53.9203 11.824C57.1316 16.1222 59.0787 20.8791 59.8526 26.3173C60.0491 27.6978 60.0491 32.332 59.8526 33.7126C59.0787 39.1507 57.1316 43.9076 53.9203 48.2058C52.8442 49.6461 49.641 52.8477 48.2 53.9233C43.8996 57.133 39.1403 59.0791 33.6995 59.8527C32.3182 60.0491 27.6818 60.0491 26.3005 59.8527C20.8597 59.0791 16.1004 57.133 11.8 53.9233C10.359 52.8477 7.15583 49.6461 6.0797 48.2058C2.86842 43.9076 0.921318 39.1507 0.147362 33.7126C-0.0491219 32.332 -0.0491219 27.6978 0.147362 26.3173C0.921318 20.8791 2.86842 16.1222 6.0797 11.824C7.15583 10.3837 10.359 7.18212 11.8 6.10651C15.9794 2.98711 20.6032 1.052 25.772 0.259063C26.9539 0.0777026 31.2625 -0.0702034 32.2902 0.035209ZM33.9931 15.2324C33.5899 15.4137 31.9273 17.0066 26.9813 21.9502C20.0922 28.8358 20.0224 28.9167 20.0224 30.0149C20.0224 31.1074 20.1092 31.2085 26.806 37.915C30.2745 41.3885 33.3422 44.3839 33.6234 44.5712C34.521 45.1699 35.538 45.1594 36.4701 44.5421C36.9823 44.203 37.5174 43.1689 37.5138 42.5248C37.5083 41.4983 37.3252 41.2826 31.5524 35.5027L26.0714 30.0149L31.5524 24.5271C37.3203 18.7521 37.5112 18.5273 37.5112 17.5133C37.5112 17.0209 37.1732 16.1486 36.8347 15.7674C36.524 15.4177 35.5099 14.9917 34.9914 14.9933C34.733 14.994 34.2838 15.1017 33.9931 15.2324Z" fill="#0A823A"/>
</svg>
