<svg width="60" height="60" viewBox="0 0 60 60" fill="none" xmlns="http://www.w3.org/2000/svg">
<path fill-rule="evenodd" clip-rule="evenodd" d="M27.7098 0.035209C21.537 0.668622 16.5214 2.5826 11.8 6.10651C10.359 7.18212 7.15584 10.3837 6.0797 11.824C2.86842 16.1222 0.921319 20.8791 0.147363 26.3173C-0.049121 27.6978 -0.049121 32.332 0.147363 33.7126C0.921319 39.1507 2.86842 43.9076 6.0797 48.2058C7.15584 49.6461 10.359 52.8477 11.8 53.9233C16.1004 57.133 20.8597 59.0791 26.3005 59.8527C27.6818 60.0491 32.3182 60.0491 33.6995 59.8527C39.1403 59.0791 43.8996 57.133 48.2 53.9233C49.641 52.8477 52.8442 49.6461 53.9203 48.2058C57.1316 43.9076 59.0787 39.1507 59.8526 33.7126C60.0491 32.332 60.0491 27.6978 59.8526 26.3173C59.0787 20.8791 57.1316 16.1222 53.9203 11.824C52.8442 10.3837 49.641 7.18212 48.2 6.10651C44.0206 2.98711 39.3968 1.052 34.228 0.259063C33.0461 0.0777026 28.7375 -0.0702034 27.7098 0.035209ZM26.0069 15.2324C26.4101 15.4137 28.0727 17.0066 33.0187 21.9502C39.9078 28.8358 39.9776 28.9167 39.9776 30.0149C39.9776 31.1074 39.8908 31.2085 33.194 37.915C29.7255 41.3885 26.6578 44.3839 26.3766 44.5712C25.479 45.1699 24.462 45.1594 23.5299 44.5421C23.0177 44.203 22.4826 43.1689 22.4862 42.5248C22.4917 41.4983 22.6748 41.2826 28.4476 35.5027L33.9286 30.0149L28.4476 24.5271C22.6797 18.7521 22.4887 18.5273 22.4887 17.5133C22.4887 17.0209 22.8268 16.1486 23.1653 15.7674C23.476 15.4177 24.4901 14.9917 25.0086 14.9933C25.267 14.994 25.7162 15.1017 26.0069 15.2324Z" fill="#0A823A"/>
</svg>
